# xmcd
# Track frame offsets:
# 182
# 22117
# 28280
# 36622
# 44117
# 55320
# 65482
# 75920
# 87480
# 98542
# 111925
# 120080
# 130242
# 144925
# 151995
# 167900
#
# Disc length: 2304 seconds
# Revision: 0
# Processed by: cddbd v1.4PL0 Copyright (c) Steve Scherf et al.
# Submitted via: VisiTrax 2.9.5.181 - For more info visit www.synapsa.com
#
DISCID=d908fe10
DTITLE=Marty Robbins - Marty Robbins "Live"
DYEAR=1995
DGENRE=Country
TTITLE0=El Paso
TTITLE1=Big Iron His Hip
TTITLE2=Jambalaya (On The Bayou)
TTITLE3=Foggy Mountain Breakdown
TTITLE4=Touch Me With Magic
TTITLE5=Chime Bells
TTITLE6=Among My Souvenirs
TTITLE7=Jenny
TTITLE8=Devil Woman
TTITLE9=Big Boss Man
TTITLE10=That's Alright Mama
TTITLE11=Love Me
TTITLE12=Don't Worry 'Bout Me
TTITLE13=Ribbon Of Darkness
TTITLE14=My Woman, My Woman, My Wife
TTITLE15=A White Sportcoat And A Pink Carnation
EXTD=
EXTT0=
EXTT1=
EXTT2=
EXTT3=
EXTT4=
EXTT5=
EXTT6=
EXTT7=
EXTT8=
EXTT9=
EXTT10=
EXTT11=
EXTT12=
EXTT13=
EXTT14=
EXTT15=
PLAYORDER=
